<svg xmlns="http://www.w3.org/2000/svg" viewBox="0 0 1280 1280"><defs><style>.cls-1{fill:#fdda76;}.cls-1,.cls-2,.cls-3,.cls-4,.cls-5,.cls-6,.cls-7{fill-rule:evenodd;}.cls-2{fill:#dbb35d;}.cls-3{fill:#c287f3;}.cls-4{fill:#efbbff;}.cls-5{fill:#8965ab;}.cls-6{fill:#f9d884;}.cls-7{fill:#e7b76b;}</style></defs><g id="Layer_16" data-name="Layer 16"><path class="cls-1" d="M1077.15,383.25c-285.82,46-573.54,47.78-864,0v525c260.37-49,523.07-52.65,788.09-8.83,19,3.13,38.67-4.18,53.15-17.19a68.62,68.62,0,0,0,22.74-51c0-145.88,0-448,0-448Z"/><path class="cls-2" d="M865.29,479.76a14.85,14.85,0,0,0-3.5-9.71,11.29,11.29,0,0,0-8.47-4H420.63a11.26,11.26,0,0,0-8.47,4,14.81,14.81,0,0,0-3.51,9.71h0a14.76,14.76,0,0,0,3.51,9.7,11.26,11.26,0,0,0,8.47,4H853.32a11.29,11.29,0,0,0,8.47-4,14.81,14.81,0,0,0,3.5-9.7Z"/><path class="cls-2" d="M866,555.64c0-7.58-5.36-13.72-12-13.72H555.55a11.27,11.27,0,0,0-8.47,4,14.86,14.86,0,0,0-3.51,9.71h0c0,7.58,5.37,13.72,12,13.72H854c6.61,0,12-6.14,12-13.72Z"/><path class="cls-2" d="M866,631.52c0-7.58-5.36-13.72-12-13.72h-76.9a11.23,11.23,0,0,0-8.47,4,14.76,14.76,0,0,0-3.51,9.7h0c0,7.58,5.36,13.72,12,13.72H854c6.61,0,12-6.14,12-13.72Z"/><path class="cls-2" d="M727.49,631.52c0-7.58-5.36-13.72-12-13.72H495.33a11.26,11.26,0,0,0-8.47,4,14.81,14.81,0,0,0-3.5,9.7h0c0,7.58,5.36,13.72,12,13.72H715.52c6.61,0,12-6.14,12-13.72Z"/><path class="cls-2" d="M865.29,707.4c0-7.58-5.36-13.72-12-13.72H635.05c-6.61,0-12,6.14-12,13.72h0c0,7.58,5.36,13.72,12,13.72H853.32c6.61,0,12-6.14,12-13.72Z"/><path class="cls-2" d="M602.91,707.4c0-7.58-5.36-13.72-12-13.72H422.82c-6.61,0-12,6.14-12,13.72h0c0,7.58,5.37,13.72,12,13.72H590.94c6.61,0,12-6.14,12-13.72Z"/><path class="cls-2" d="M864.59,783.28a14.76,14.76,0,0,0-3.51-9.7,11.23,11.23,0,0,0-8.47-4H722.49a11.26,11.26,0,0,0-8.47,4,14.81,14.81,0,0,0-3.5,9.7h0A14.81,14.81,0,0,0,714,793a11.26,11.26,0,0,0,8.47,4H852.61a11.23,11.23,0,0,0,8.47-4,14.76,14.76,0,0,0,3.51-9.7Z"/><path class="cls-3" d="M277.31,928.28H186.22v8.52a9.07,9.07,0,0,0,9.08,9.08h72.93a9.07,9.07,0,0,0,9.08-9.08v-8.52Z"/><path class="cls-4" d="M288.58,910.68H175v8.52a9.08,9.08,0,0,0,9.09,9.08h95.45a9.08,9.08,0,0,0,9.09-9.08Z"/><path class="cls-5" d="M247.59,945.88H215.94v14A9.08,9.08,0,0,0,225,969h13.49a9.08,9.08,0,0,0,9.08-9.08v-14Z"/><path class="cls-3" d="M277.31,354.05H186.22v-8.52a9.08,9.08,0,0,1,9.08-9.08h72.93a9.08,9.08,0,0,1,9.08,9.08v8.52Z"/><path class="cls-4" d="M288.58,371.65H175v-8.52a9.09,9.09,0,0,1,9.09-9.08h95.45a9.09,9.09,0,0,1,9.09,9.08Z"/><path class="cls-5" d="M247.59,336.45H215.94v-14a9.08,9.08,0,0,1,9.08-9.09h13.49a9.08,9.08,0,0,1,9.08,9.09v14Z"/><path class="cls-6" d="M300.65,376.24a10.61,10.61,0,0,0-10.6-10.61H173.48a10.61,10.61,0,0,0-10.6,10.61V906.1a10.61,10.61,0,0,0,10.6,10.6H290.05a10.61,10.61,0,0,0,10.6-10.6Z"/><path class="cls-7" d="M300.65,386.45a10.61,10.61,0,0,0-1.16-4.82c-2.53-4.9-8.77-15.49-14.46-13.13-8.22,3.42-15.72,11.11-17.57,31.59-3.52,38.78,11.65,123.57,12.09,198.19S277.37,828,270.12,847.83c-14.47,39.47-66.74,58.33-92.58,65.4a1.77,1.77,0,0,0,.46,3.47H290.05a10.61,10.61,0,0,0,10.6-10.6V386.45Z"/><path class="cls-3" d="M1002.69,926h91.09v8.52a9.08,9.08,0,0,1-9.08,9.08h-72.93a9.08,9.08,0,0,1-9.08-9.08V926Z"/><path class="cls-4" d="M991.42,908.35H1105v8.52A9.08,9.08,0,0,1,1096,926H1000.5a9.09,9.09,0,0,1-9.08-9.08Z"/><path class="cls-5" d="M1032.41,943.55h31.65v14a9.08,9.08,0,0,1-9.08,9.08h-13.49a9.08,9.08,0,0,1-9.08-9.08Z"/><path class="cls-3" d="M1002.69,351.72h91.09V343.2a9.07,9.07,0,0,0-9.08-9.08h-72.93a9.07,9.07,0,0,0-9.08,9.08v8.52Z"/><path class="cls-4" d="M991.42,369.32H1105V360.8a9.07,9.07,0,0,0-9.08-9.08H1000.5a9.08,9.08,0,0,0-9.08,9.08v8.52Z"/><path class="cls-5" d="M1032.41,334.12h31.65v-14A9.08,9.08,0,0,0,1055,311h-13.49a9.08,9.08,0,0,0-9.08,9.08Z"/><path class="cls-6" d="M979.35,373.9A10.61,10.61,0,0,1,990,363.3h116.57a10.61,10.61,0,0,1,10.6,10.6V903.76a10.61,10.61,0,0,1-10.6,10.61H990a10.61,10.61,0,0,1-10.6-10.61Z"/><path class="cls-7" d="M979.35,374a10.62,10.62,0,0,1,5-9c3.39-2.1,7.68-3.48,10.1.59,4,6.75,9.65,27.66,11.5,48.15,3.52,38.77-9.93,126.84-9.27,198.8s5.68,214.14,13.19,233c15.21,38.11,68.9,58,94.06,65.41a1.76,1.76,0,0,1-.49,3.46H990a10.61,10.61,0,0,1-10.6-10.61V374Z"/></g></svg>